<svg xmlns="http://www.w3.org/2000/svg" width="400.048" height="400.016" viewBox="0 0 105.846 105.838">
    <defs>
        <mask id="A">
            <path fill="#fff" d="M300 300h100v100H300z"/>
            <path fill="#000" d="M331.042 373.626c.189-.253.646-.324.924-.402l3.582-1.021 3.516-1.058c.365-.109.955-.479 1.158-.073.178.354.268.829-.072 1.111-.369.304-.877.562-1.301.786-.879.467-1.844.796-2.803 1.05-.793.208-1.613.299-2.412.485-.574.134-1.693.626-2.26.269-.172-.108-.412-.679-.418-.87-.002-.11.029-.202.086-.277z"/>
        </mask>
    </defs>
    <path d="M0 0h105.846v105.838H0z"/>
    <g transform="translate(.008 -.009)" fill="#fff">
        <path d="M57.428 90.583c-.521-.901-1.032-1.281-2.048-1.279s-1.431-.19-2.165-1.113c-.749-.941.072-2.855 1.973-2.867.518-.003 1.05.144 1.54-.145.236-.139.419-.333.433-.613s-.138-.493-.402-.602c-1.438-.592-3.799.211-4.676 1.518-.838 1.251-1.58 2.692.143 3.99a.42.42 0 0 1 .094.366c-.453 1.544.778 2.382 1.435 3.46.642 1.056 1.522 1.293 2.512.858.555-.244.46-.826.92-.16.265.385.611.81 1.104.405s.26-.97.084-1.462c-.286-.797-.51-1.602-.949-2.358zm-3.744.146c2.059-.398 3.489.403 1.671 2.103-.812-.484-1.33-1.541-1.671-2.103zm-7.933-4.93c.007-2.263-1.253-3.589-3.513-3.788-.887-.078-1.818.093-2.611-.613-.472-.42-.971-.011-.949.501.061 1.429-.362 2.845.091 4.298.395 1.264.917 2.561.134 3.952-.477.846.203 1.208.952 1.21 1.204.002 2.298-.497 3.377-.964 1.566-.677 2.651-1.72 2.449-3.51l.071-1.085zm-1.405.594c-.089 1.505-1.252 3.001-3.123 3.269-.663.094-.593-.281-.588-.651.016-1.181-.241-2.304-.561-3.436-.222-.786-.473-1.715.363-2.314.546-.392 2.785.223 3.225.752.618.743.772.874.683 2.38zm-17.699 2.144c-.654-.725-1.099-1.614-2.047-2.332 1.545-.797 2.258-2.343 1.849-3.819-.347-1.257-1.482-.774-2.306-.933-.845-.162-1.918.162-2.04-1.242-.034-.392-.415-.675-.888-.502-.435.16-.574.552-.522.955.265 2.034-.149 4.044-.172 6.068-.005.411.023.855.506.915.447.055.701-.282.75-.726.124-1.128.604-.638 1.137-.289 1.118.737 1.873 1.804 2.688 2.821.313.392.563 1.07 1.19.598.634-.477.264-1.063-.144-1.514zm-3.051-4.084c-.651-.069-1.692.092-1.546-1.049.144-1.131 1.064-.662 1.689-.651.595.008 1.404-.127 1.351.902-.061 1.201-.844.868-1.494.799zm42.095.647c-.264-1.537-1.003-1.917-2.553-1.564-.69.157-1.318.648-2.074.446-.884-.236-1.114.34-1.044.965.22 1.946.155 3.938.878 5.812.143.367.158.829.673.822.497-.006.686-.413.642-.82-.173-1.618 1.174-1.065 1.877-1.251 1.109-.292.795.681.903 1.259a2.93 2.93 0 0 0 .253.738c.157.321.421.51.794.397s.472-.41.41-.761l-.761-6.042zm-2.985 3.092c-1.28.059-1.133-.9-1.115-1.759.017-.841.95-1.643 2.016-1.553 1.128.095.889 1.094.904 1.804.024 1.183-.487 1.585-1.804 1.508zM14.034 78.87c-.193-.024-.388-.074-.577-.059-.364.03-.643.235-.622.614.117 2.105-.266 4.126-.947 6.107-.107.312-.048.67.307.836.345.16.664.032.834-.283.278-.514.527-1.047.742-1.591.289-.732.861-.665 1.467-.602.756.079.726.606.695 1.148l-.049.978c-.015.367.143.676.487.758.467.11.778-.199.825-.622l.214-2.923c.126-4.534 1.071-3.798-3.376-4.359zm1.002 3.643c-.593-.057-.996-.199-.868-.935.119-.683.043-1.229 1.064-1.11s.987.495.954 1.155c-.041.792-.462.956-1.15.89zm58.78-.101c-.316.026-.486.282-.485.526.003.586.089 1.171.139 1.756.081.951.625 1.857.298 2.982-1.243-.843-1.963-2.007-2.741-3.123-.311-.446-.731-.843-1.319-.547-.504.255-.375.793-.317 1.237a26.1 26.1 0 0 0 .647 3.264c.183.684-.427 2.347 1.039 1.987 1.244-.305.284-1.515.12-2.519 1.207.142 1.621 1.132 2.426 1.532.73.363 1.288.377 1.49-.529.476-2.135-.21-4.157-.678-6.194-.056-.246-.329-.398-.621-.373zm-41.521-.827c-.11-.369-.402-.707-.89-.568-.353.101-.592.412-.528.737.259 1.315-.487 2.219-1.152 3.192a6.78 6.78 0 0 0-.933 2.294c-.077.511-.146 1.049.44 1.229.486.149.695-.218.804-.627.094-.35.28-.517.67-.576 1.992-.3 3.058.333 3.706 2.336.131.403.237.84.673.826.554-.018.671-.51.714-.998.036-.415-.125-.763-.271-1.13-.921-2.314-2.515-4.301-3.232-6.716zm-.364 4.497c-.339-.059-.891.116-.919-.42-.025-.477.407-.906.809-.962.556-.077.617.502.732.926s-.312.509-.622.455zm52.108.257c.03-.256-.028-.523-.046-.785-.075-1.169-.895-1.325-1.813-1.303-1.02.023-1.667.4-1.359 1.58.121.182.511.093.769.116.406.035.82.082.832.601.008.309-.01.69-.349.847-.457.211-.736-.156-.967-.443-.28-.349-.479-.762-.713-1.147-1.048-1.584-.948-2.662.439-4.285.271-.316.564-.593.238-1.002-.303-.38-.729-.312-1.062-.091-.713.475-1.307 1.021-1.492 1.962-.424 2.159.031 4.004 1.634 5.559.802.777 3.065 1.306 3.953.702 1.045-.712-.156-1.526-.063-2.31zM9.724 77.644c-.743-.306-2.877-.347-3.106-.448-1.33-.592-1.789.152-1.989 1.277l-.988 5.811c-.077.488-.255 1.166.515 1.239.58.054.704-.52.749-.982.14-1.436.932-1.553 2.052-1.056l1.432.633c.38.134.826.136 1.036-.283.216-.43-.053-.715-.43-.948-.735-.452-1.494-.864-2.361-.934-1.432-.116-.94-1.143-.931-1.912.01-.905.358-1.544 1.426-1.396l2.329.34c.345.041.665-.084.791-.444.168-.483-.145-.74-.525-.897zm77.399-31.329c-.942-3.753-3.002-6.63-6.974-7.813-1.423-.424-2.726-.681-4.218-.288-1.305.344-2.276 1.016-3.839.977-.827-2.977-1.741-6.396-1.313-9.475.896.129 1.535.285 2.179.303 2.198.064 3.267-1.005 3.278-3.21.005-.857-.042-1.703-.3-2.533-.618-1.985-1.566-2.518-3.364-1.557-1.409.753-2.833.942-4.365.896-1.248-.037-2.498-.033-3.746 0-1.545.041-2.061.371-2.296 1.361-.387 1.639-.005 3.118 1.162 3.593.875.356 1.304 1.029 1.594 1.419 1.318.804 2.383.058 3.59.084-.047 3.199.98 6.173 1.617 9.407-3.428.173-4.517 2.485-6.821 3.514-6.82-2.811-14.439-3.369-21.363-6.664-2.456-2.744-4.542-6.025-7.377-8.651.495-1.878 1.728-3.769 1.758-3.652.931 3.535 2.88 5.267 6.508 5.253.583-.002 1.041-.182 1.164-.815.105-.539-.185-.924-.643-1.086-.613-.216-1.26-.359-1.903-.466-1.904-.319-2.86-1.213-2.931-3.078-.055-1.43-.099-3.509.123-4.201s4.503-3.77 7.841-3.213a3.09 3.09 0 0 0 1.414-.099c.669-.199 1.071-.678.345-1.284-1.062-.867-5.372-1.003-7.089.375-1.457 1.168-3.132.921-4.523 2.12s-1.791 2.664-2.036 4.27c-.121.789-.466 1.497-.814 2.209-1.792 3.667-3.351 7.417-3.941 11.496-.093.64-.267 1.235-.681 1.727-.885-.252-1.368-.932-2.036-1.337-.557-.338-1.04-.84-1.745-.848-3.833-.047-7.512.437-10.302 3.444-.341.367-.858 1.064-.922 1.142s-.658-.045-.877.181a.69.69 0 0 0 .005.958c-.073.138-.371.569-.538.766-2.382 2.822-2.186 5.873-.401 8.855.775 1.295 1.762 2.51 2.287 3.899.936 2.477 2.575 4.284 4.782 5.547 2.225 1.274 4.627 1.843 7.106.581 1.121-.572 2.306-1.009 3.527-1.183 3.223-.457 5.716-2.193 7.998-4.33.908-.851 1.328-1.908 1.11-3.203-.206-1.225-.335-2.654-.488-3.916.228-.253.791-.364.616-.911-.313-.68-1.023-.79-1.558-.846-1.623-2.981-4.243-5.206-6.474-7.943 1.067-2.554.774-5.589 2.326-8.166.965.374 1.48 1.04 1.987 1.729.623.845 1.212 1.726 1.925 2.491 2.844 3.052 3.803 6.465 6.499 9.599.327.381.841 1.309.988 1.991.59 2.739 2.106 3.97 3.938 5.947 1.774 1.914 3.864 3.345 6.67 3.29.903-.018 1.831-.097 2.9.208.175 2.05.693 3.876 1.153 5.723.313 1.257.921 2.15 2.007 2.753 3.223 1.79 6.589 3.255 10.159 4.179 1.562.404 3.152.153 4.582-.647.634-.355 1.291-.625 1.949-.917 1.633-.724 3.294-1.734 4.291-3.041 1.758-2.306 3.081-4.986 4.325-7.632 1.411-3.004.947-6.211.177-9.279zm-63.375-9.266c-.659 2.958-1.392 5.533-.795 8.578-2.907-1.254-4.773-3.259-7.102-4.78 1.88-2.846 4.613-3.38 7.897-3.798zM13.374 47.856c-.939-2.301-.124-4.191 1.71-5.9 2.593 1.983 5.21 3.891 7.981 5.733-1.682 2.678-4.078 4.015-6.811 5.066-1.181-1.534-2.166-3.151-2.879-4.9zm9.648 10.785c-2.473.119-4.912-1.661-6.064-4.606 2.43-1.116 4.663-2.325 6.55-4.524.863 3.284.284 6.211-.487 9.131zm2.243-21.443c1.073.426 1.861 1.279 2.893 2.06-1.352 2.208-2.068 4.606-2.283 7.195-.48.224-.746.433-1.317.349-1.003-3.212-.343-6.372.707-9.604zm6.387 19.558c-2.258.558-4.633.979-7.107 2.284.467-3.176 1.219-6.042.512-8.915.654-.578 1.352-.143 1.895-.43 1.889 1.319 3.089 3.144 4.441 4.819.468.581.452 1.338.26 2.242zm1.627-1.04c-.705-2.85-3.074-4.519-4.866-6.883 2.679-.869 5.233-1.131 7.785-1.074 1.725 4.936.931 6.135-2.919 7.957zm2.385-9.504c-2.678.551-5.125.222-7.469 1.401-.32-3.171.437-5.622 2.166-7.185 1.795 1.702 3.369 3.617 5.304 5.784zm41.925-6.187c1.54-.146 3.009.688 4.386 1.63-.986 1.575-2.714 2.327-3.663 3.86-.9 1.454-1.329 3.239-2.76 4.409-.436-.506-.28-.987-.25-1.401.105-1.453-.333-2.71-1.195-3.851-.814-1.076-1.357-1.967-1.562-3.492 1.825-.074 3.519-1.01 5.044-1.155zm-6.992 1.21c.338 1.095.531 2.763 1.131 3.724s1.806 2.019 1.406 3.752c-.954-1.036-1.535-2.201-1.906-3.289s-1.303-2.112-1.935-3.137c.298-.699.505-1.067 1.304-1.05zm-2.923 1.321c.969.977 1.562 2.123 2.171 3.853l-4.154-2.375 1.983-1.478zm-3.579 3.126c2.991 1.195 5.544 2.773 7.986 5.386-3.703-.457-6.898.808-10.497.538.78-2.128 1.142-4.171 2.51-5.924zM58.95 52.82c-2.921.391-5.728.3-7.923-1.877-1.524-1.512-3.122-3.122-3.737-5.222-.705-2.407-2.302-4.213-3.851-6.701 3.347 1.479 6.363 2.481 9.527 2.988 3.118.5 6.001 1.775 9.12 2.698-1.405 2.636-1.989 5.469-3.136 8.114zm19.363 11.066c-1.26.678-2.583 1.239-3.884 1.841-.624.289-1.291.252-1.94.155-1.628-.244-3.121-.886-4.797-1.545 1.368-1.681 3.383-2.325 4.386-4.099.929-1.642 1.791-3.348 3.237-4.916 1.287 2.629 3.227 4.684 4.993 6.898-.521.819-1.265 1.273-1.997 1.667zm6.253-8.247c-.902 1.729-2.759 5.251-3.163 5.513-2.28-2.114-4.996-7.187-5.435-7.444s-1.603.006-2.08.936c-.565 1.102-1.369 2.084-1.906 3.196-1.264 2.621-3.593 4.058-5.892 5.612-.528-.16-1.041-.273-1.519-.47-1.566-.645-2.85-1.537-3.178-3.39-.258-1.455-.935-2.846-.627-4.611 2.48.427 4.528-.774 6.713-1.575 1.747-.641 3.634-.262 5.459-.142.917.061 2.135.148 2.632-.403s2.76-4.741 4.244-7.045c.778-1.209 2.097-1.904 3.178-2.935 1.118 1.146 1.884 2.319 2.13 3.791.227 1.357.57 2.707.645 4.072.094 1.721-.446 3.445-1.201 4.894z"/>
        <path mask="url(#A)" d="M333.015 378.809c-.107.163-.117.388-.043.712.133.596.4 1.215.721 1.735.492.805 1.301 1.255 2.24 1.235.641-.016 1.277-.188 1.873-.413 1.596-.601 3.23-1.22 4.896-1.457.545-.076 1.32-.021 1.705.415.475.533.438 1.587.242 2.222-.32 1.041-1.795 1.177-2.656 1.46-1.381.457-2.797.833-4.215 1.156l-2.42.477c-2.199.373-4.166-.347-5.021-2.829-1.049-3.057-4.705-4.902-4.193-8.632.273-2.002.957-3.176 2.883-3.964l7.08-2.52 4.127-1.134c2.213-.537 3.928 1.113 4.773 3.329.875 2.283-.262 3.686-2.111 4.665-1.23.652-2.553 1.162-3.875 1.602l-5.43 1.608c-.289.075-.477.176-.576.333z" transform="matrix(.264583 0 0 .264583 3.567148 -15.012946)"/>
        <path d="M99.385 82.839c.038-.081-.02-.234-.033-.32-.085-.551-.369-1.041-.532-1.57-.18-.588-.184-1.223-.165-1.833l.049-1.044c.016-.342.105-.77.397-.988.174-.131.477.212.574.36.266.406.179.96.055 1.4-.243.859.04 1.596.28 2.396.262.876.371 1.81.443 2.728.053.684-.56.992-1.057.475-1.017-1.059-1.926-2.225-2.826-3.388-.508-.658-.921-1.391-1.353-2.105-.089-.148-.177-.377-.161-.55.01-.106-.013-.068.067-.119.532-.337.934.273 1.229.602.315.351.614.737.807 1.171.409.919.998 1.746 1.661 2.497.099.113.381.609.562.297zm-7.31.788l.406.254m3.918 1.804c-.251-.229-.574-.082-.551.26.032.509.728.2.604-.181a.19.19 0 0 0-.052-.079zm5.511-1.789c.224-.254.073-.573-.27-.546-.509.041-.188.731.192.6.031-.011.056-.029.078-.055z"/>
    </g>
</svg>